<?xml version="1.0" encoding="UTF-8" standalone="no"?>
<!-- Created with Inkscape (http://www.inkscape.org/) -->

<svg
   xmlns:dc="http://purl.org/dc/elements/1.1/"
   xmlns:cc="http://creativecommons.org/ns#"
   xmlns:rdf="http://www.w3.org/1999/02/22-rdf-syntax-ns#"
   xmlns:svg="http://www.w3.org/2000/svg"
   xmlns="http://www.w3.org/2000/svg"
   xmlns:xlink="http://www.w3.org/1999/xlink"
   xmlns:sodipodi="http://sodipodi.sourceforge.net/DTD/sodipodi-0.dtd"
   xmlns:inkscape="http://www.inkscape.org/namespaces/inkscape"
   version="1.1"
   id="svg2"
   width="480"
   height="480"
   viewBox="0 0 480 480"
   sodipodi:docname="banner-right.svg"
   inkscape:version="0.92.2 (unknown)">
  <metadata
     id="metadata8">
    <rdf:RDF>
      <cc:Work
         rdf:about="">
        <dc:format>image/svg+xml</dc:format>
        <dc:type
           rdf:resource="http://purl.org/dc/dcmitype/StillImage" />
        <dc:title />
      </cc:Work>
    </rdf:RDF>
  </metadata>
  <defs
     id="defs6">
    <linearGradient
       inkscape:collect="always"
       xlink:href="#linearGradient1092"
       id="linearGradient1094"
       x1="-0.8462103"
       y1="145.37189"
       x2="35.084747"
       y2="173.51695"
       gradientUnits="userSpaceOnUse" />
    <linearGradient
       inkscape:collect="always"
       id="linearGradient1092">
      <stop
         style="stop-color:#3e403e;stop-opacity:1;"
         offset="0"
         id="stop1088" />
      <stop
         style="stop-color:#3e403e;stop-opacity:0;"
         offset="1"
         id="stop1090" />
    </linearGradient>
  </defs>
  <sodipodi:namedview
     pagecolor="#ffffff"
     bordercolor="#666666"
     borderopacity="1"
     objecttolerance="10"
     gridtolerance="10"
     guidetolerance="10"
     inkscape:pageopacity="0"
     inkscape:pageshadow="2"
     inkscape:window-width="1366"
     inkscape:window-height="741"
     id="namedview4"
     showgrid="false"
     inkscape:zoom="0.69532167"
     inkscape:cx="27.677452"
     inkscape:cy="230.46856"
     inkscape:window-x="0"
     inkscape:window-y="0"
     inkscape:window-maximized="1"
     inkscape:current-layer="svg2" />
  <g
     id="g1100">
    <rect
       ry="2"
       y="0"
       x="0"
       height="480"
       width="480"
       id="rect1014"
       style="opacity:0.67000002;fill:#b3b3b3;fill-opacity:1;stroke:none;stroke-width:1.75748026;stroke-linecap:butt;stroke-linejoin:bevel;stroke-miterlimit:4;stroke-dasharray:none;stroke-dashoffset:0;stroke-opacity:1;paint-order:stroke markers fill" />
    <g
       style="stroke:none"
       id="g1170"
       transform="translate(-0.17661695,-1.2615765)">
      <path
         style="fill:none;stroke:none;stroke-width:1px;stroke-linecap:butt;stroke-linejoin:miter;stroke-opacity:1"
         d="M -0.84621028,145.37189 42.426407,142.02693 c 5.67479,-1.03576 7.826721,-4.10079 8.449326,-8.80887 L 43.86459,-0.35321716 0.17661695,1.2615765 Z"
         id="path876"
         inkscape:connector-curvature="0"
         sodipodi:nodetypes="cccccc" />
      <path
         style="fill:#796e68;fill-opacity:1;stroke:none;stroke-width:1px;stroke-linecap:butt;stroke-linejoin:miter;stroke-opacity:1"
         d="m 209.49153,238.98305 6.61017,-5.59322 21.35593,-8.64407 10.16949,-9.66101 17.79661,-4.57628 28.98305,22.37289 24.91525,11.18644 4.57628,9.66101 0.50847,9.15255 49.83051,9.15254 v 7.11865 l -0.50848,4.06779 -50.33898,-7.62712 c 0,0 6.61017,21.35593 7.62712,23.89831 1.01695,2.54237 6.10169,21.35593 6.10169,21.35593 0,0 13.22034,14.23729 13.72882,16.77966 0.50847,2.54237 17.28813,22.37288 19.32203,23.8983 2.0339,1.52543 60,48.81356 61.52543,50.84746 1.52542,2.0339 50.33898,46.77966 50.33898,46.77966 l -1.85728,22.10904 -93.73594,0.77232 -25.42373,-43.72882 -29.49153,-46.77966 -15.25423,-16.27118 -14.23729,-14.74577 -40.67797,-35.59322 -25.9322,-32.54237 -4.77509,-3.29171 -7.19091,0.89886 -5.21342,-2.33704 -1.07863,-3.05614 -5.75274,-0.17978 -5.03364,-1.9775 -0.89886,-5.93251 3.05614,-3.77523 -4.13478,-2.87636 -0.89886,-3.23592 5.39318,-7.01114 -1.07864,-3.955 0.53932,-3.59546 -16.17956,-1.9775 -7.37069,-4.49433 -1.43818,-3.77523 0.89886,-1.61795 25.52776,2.33704 z"
         id="path878"
         inkscape:connector-curvature="0"
         sodipodi:nodetypes="cccccccccccccccccccccccccccccccccccccccccccccc" />
      <path
         style="fill:#7b5f58;fill-opacity:1;stroke:none;stroke-width:1px;stroke-linecap:butt;stroke-linejoin:miter;stroke-opacity:1"
         d="M 70.423729,102.45763 V 92.033898 L 101.44068,28.728813 114.40678,0.76271111 125.08475,1.0169484 81.101695,94.576271 73.983051,105 h -2.542373 z"
         id="path880"
         inkscape:connector-curvature="0" />
      <path
         style="fill:#816e66;fill-opacity:1;stroke:none;stroke-width:1px;stroke-linecap:butt;stroke-linejoin:miter;stroke-opacity:1"
         d="M 56.949153,128.38983 64.576271,114.40678 173.13559,1.2711857 h 16.77966 L 71.949153,122.0339 59.745763,131.18644 57.20339,130.9322 Z"
         id="path882"
         inkscape:connector-curvature="0" />
      <path
         style="fill:#796458;fill-opacity:1;stroke:none;stroke-width:1px;stroke-linecap:butt;stroke-linejoin:miter;stroke-opacity:1"
         d="m 95.084746,111.10169 8.644064,-8.8983 131.18644,-79.067798 6.86441,-3.050847 3.30509,2.033898 1.01695,2.033899 -1.01695,4.576271 -136.52543,82.627117 -10.932201,4.57627 -3.050848,-0.76271 z"
         id="path884"
         inkscape:connector-curvature="0" />
      <path
         style="fill:url(#linearGradient1094);fill-opacity:1;stroke:none;stroke-width:1px;stroke-linecap:butt;stroke-linejoin:miter;stroke-opacity:1"
         d="m 42.426407,142.02693 1.302407,23.22731 -6.61017,13.72881 L -0.50847458,180 -0.84621028,145.37189 Z"
         id="path886"
         inkscape:connector-curvature="0"
         sodipodi:nodetypes="cccccc" />
      <rect
         style="opacity:1;fill:#0088aa;fill-opacity:1;stroke:none;stroke-width:1.75748026;stroke-linecap:butt;stroke-linejoin:bevel;stroke-miterlimit:4;stroke-dasharray:none;stroke-dashoffset:0;stroke-opacity:1;paint-order:stroke markers fill"
         id="rect888"
         width="24.40678"
         height="24.40678"
         x="328.47458"
         y="46.779659" />
      <rect
         style="opacity:1;fill:#ff80b2;fill-opacity:1;stroke:none;stroke-width:1.75748026;stroke-linecap:butt;stroke-linejoin:bevel;stroke-miterlimit:4;stroke-dasharray:none;stroke-dashoffset:0;stroke-opacity:1;paint-order:stroke markers fill"
         id="rect890"
         width="23.38983"
         height="20.847458"
         x="352.88135"
         y="85.932205" />
      <rect
         style="opacity:1;fill:#17280b;fill-opacity:1;stroke:none;stroke-width:1.75748026;stroke-linecap:butt;stroke-linejoin:bevel;stroke-miterlimit:4;stroke-dasharray:none;stroke-dashoffset:0;stroke-opacity:1;paint-order:stroke markers fill"
         id="rect892"
         width="21.355932"
         height="14.745763"
         x="229.32204"
         y="126.61017" />
      <rect
         style="opacity:1;fill:#803300;fill-opacity:1;stroke:none;stroke-width:1.75748026;stroke-linecap:butt;stroke-linejoin:bevel;stroke-miterlimit:4;stroke-dasharray:none;stroke-dashoffset:0;stroke-opacity:1;paint-order:stroke markers fill"
         id="rect894"
         width="5.0847459"
         height="24.915255"
         x="260.84747"
         y="101.69492" />
      <rect
         style="opacity:1;fill:#ff0066;fill-opacity:1;stroke:none;stroke-width:1.75748026;stroke-linecap:butt;stroke-linejoin:bevel;stroke-miterlimit:4;stroke-dasharray:none;stroke-dashoffset:0;stroke-opacity:1;paint-order:stroke markers fill"
         id="rect896"
         width="56.949154"
         height="5.0847459"
         x="43.728813"
         y="445.42374" />
      <rect
         style="opacity:1;fill:#5555ff;fill-opacity:1;stroke:none;stroke-width:1.75748026;stroke-linecap:butt;stroke-linejoin:bevel;stroke-miterlimit:4;stroke-dasharray:none;stroke-dashoffset:0;stroke-opacity:1;paint-order:stroke markers fill"
         id="rect898"
         width="21.355932"
         height="21.355932"
         x="250.16949"
         y="418.98306" />
      <rect
         style="opacity:1;fill:#d45500;fill-opacity:1;stroke:none;stroke-width:1.75748026;stroke-linecap:butt;stroke-linejoin:bevel;stroke-miterlimit:4;stroke-dasharray:none;stroke-dashoffset:0;stroke-opacity:1;paint-order:stroke markers fill"
         id="rect900"
         width="6.1016951"
         height="63.050846"
         x="45.762711"
         y="319.32202" />
      <rect
         style="opacity:1;fill:#d52024;fill-opacity:1;stroke:none;stroke-width:1.75748026;stroke-linecap:butt;stroke-linejoin:bevel;stroke-miterlimit:4;stroke-dasharray:none;stroke-dashoffset:0;stroke-opacity:1;paint-order:stroke markers fill"
         id="rect902"
         width="7.1186442"
         height="5.0847459"
         x="336.61017"
         y="173.8983" />
      <rect
         style="opacity:1;fill:#e0cd18;fill-opacity:1;stroke:none;stroke-width:1.75748026;stroke-linecap:butt;stroke-linejoin:bevel;stroke-miterlimit:4;stroke-dasharray:none;stroke-dashoffset:0;stroke-opacity:1;paint-order:stroke markers fill"
         id="rect904"
         width="11.18644"
         height="13.220339"
         x="459.66101"
         y="11.18644" />
      <rect
         style="opacity:1;fill:#2bb1c1;fill-opacity:1;stroke:none;stroke-width:1.75748026;stroke-linecap:butt;stroke-linejoin:bevel;stroke-miterlimit:4;stroke-dasharray:none;stroke-dashoffset:0;stroke-opacity:1;paint-order:stroke markers fill"
         id="rect906"
         width="22.372881"
         height="28.474577"
         x="444.40677"
         y="356.94916" />
      <rect
         style="opacity:1;fill:#1e285e;fill-opacity:1;stroke:none;stroke-width:1.75748026;stroke-linecap:butt;stroke-linejoin:bevel;stroke-miterlimit:4;stroke-dasharray:none;stroke-dashoffset:0;stroke-opacity:1;paint-order:stroke markers fill"
         id="rect908"
         width="18.305084"
         height="18.305084"
         x="416.94916"
         y="304.06781" />
      <rect
         style="opacity:1;fill:#1a4416;fill-opacity:1;stroke:none;stroke-width:1.75748026;stroke-linecap:butt;stroke-linejoin:bevel;stroke-miterlimit:4;stroke-dasharray:none;stroke-dashoffset:0;stroke-opacity:1;paint-order:stroke markers fill"
         id="rect910"
         width="48.81356"
         height="6.1016951"
         x="401.69492"
         y="120" />
      <rect
         style="opacity:1;fill:#ce15b1;fill-opacity:1;stroke:none;stroke-width:1.75748026;stroke-linecap:butt;stroke-linejoin:bevel;stroke-miterlimit:4;stroke-dasharray:none;stroke-dashoffset:0;stroke-opacity:1;paint-order:stroke markers fill"
         id="rect914"
         width="19.322035"
         height="19.322035"
         x="431.18643"
         y="87.457626" />
      <rect
         style="opacity:1;fill:#dc5d21;fill-opacity:1;stroke:none;stroke-width:1.75748026;stroke-linecap:butt;stroke-linejoin:bevel;stroke-miterlimit:4;stroke-dasharray:none;stroke-dashoffset:0;stroke-opacity:1;paint-order:stroke markers fill"
         id="rect916"
         width="9.1525421"
         height="9.1525421"
         x="406.77966"
         y="206.44067" />
      <rect
         style="opacity:1;fill:#ffff00;fill-opacity:1;stroke:none;stroke-width:1.75748026;stroke-linecap:butt;stroke-linejoin:bevel;stroke-miterlimit:4;stroke-dasharray:none;stroke-dashoffset:0;stroke-opacity:1;paint-order:stroke markers fill"
         id="rect920"
         width="25.423729"
         height="25.423729"
         x="24.40678"
         y="213.55933" />
      <rect
         style="opacity:1;fill:#7fff2a;fill-opacity:1;stroke:none;stroke-width:1.75748026;stroke-linecap:butt;stroke-linejoin:bevel;stroke-miterlimit:4;stroke-dasharray:none;stroke-dashoffset:0;stroke-opacity:1;paint-order:stroke markers fill"
         id="rect924"
         width="32.909164"
         height="20.338984"
         x="164.74576"
         y="211.52542" />
      <path
         style="fill:#604e40;fill-opacity:1;stroke:none;stroke-width:1px;stroke-linecap:butt;stroke-linejoin:miter;stroke-opacity:1"
         d="m 302.0339,360.50847 48.16373,10.1896 75.50462,56.80824 22.29184,54.65096 -61.55341,-0.12337 -54.91526,-90.50848 z"
         id="path926"
         inkscape:connector-curvature="0" />
      <path
         style="fill:none;stroke:none;stroke-width:1px;stroke-linecap:butt;stroke-linejoin:miter;stroke-opacity:1"
         d="m 208.3568,252.04795 7.01115,-4.31455 7.55046,1.43818 11.14592,8.26956 89.3255,18.15208 50.33898,7.62712 0.50848,-4.06779 v -7.11865 l -49.83051,-9.15254 -95.37609,-15.50751 -7.91001,0.35955 -8.26955,-1.79773 -3.05614,-3.41569 -25.52776,-2.33704 -0.89886,1.61795 1.43818,3.77523 7.37069,4.49433 z"
         id="path928"
         inkscape:connector-curvature="0"
         sodipodi:nodetypes="cccccccccccccccccc" />
      <path
         style="fill:#796e64;fill-opacity:1;stroke:none;stroke-width:1px;stroke-linecap:butt;stroke-linejoin:miter;stroke-opacity:1"
         d="m 216.1017,233.38983 -6.61017,5.59322 0.30346,3.53693 3.05614,3.41569 8.26955,1.79773 7.91001,-0.35955 10.78637,-4.67409 c 0,0 1.07864,-2.15728 1.07864,-4.31455 0,-2.15728 -3.23591,-7.19092 -3.23591,-7.19092 l -3.955,-5.03364 z"
         id="path930"
         inkscape:connector-curvature="0"
         sodipodi:nodetypes="cccccccsccc" />
      <path
         style="fill:#553425;fill-opacity:1;stroke:none;stroke-width:1px;stroke-linecap:butt;stroke-linejoin:miter;stroke-opacity:1"
         d="m 239.81706,242.69976 8.6291,-1.43819 10.42683,-4.31455 0.71909,-11.50546 -4.31455,-1.43818 -6.11228,3.955 -11.50546,3.23591 3.955,7.19092 z"
         id="path932"
         inkscape:connector-curvature="0" />
      <path
         style="fill:#6b4c40;fill-opacity:1;stroke:none;stroke-width:1px;stroke-linecap:butt;stroke-linejoin:miter;stroke-opacity:1"
         d="m 258.87299,236.94702 6.11228,6.83138 8.98865,3.59545 5.03364,-4.67409 -1.43819,-6.11228 -10.42682,-11.50547 -7.55047,0.35955 z"
         id="path934"
         inkscape:connector-curvature="0" />
      <path
         style="fill:#332117;fill-opacity:1;stroke:none;stroke-width:1px;stroke-linecap:butt;stroke-linejoin:miter;stroke-opacity:1"
         d="m 234.06433,257.44114 8.6291,9.70773 12.94365,10.78638 5.03364,2.51682 1.43818,2.15727 8.26956,-1.43818 8.6291,-14.74138 z"
         id="path936"
         inkscape:connector-curvature="0" />
      <path
         style="fill:#3e2417;fill-opacity:1;stroke:none;stroke-width:1px;stroke-linecap:butt;stroke-linejoin:miter;stroke-opacity:1"
         d="m 281.52438,256.00295 -52.49369,-8.6291 10.78637,-4.67409 8.6291,-1.43819 10.42683,-4.31455 6.11228,6.83138 8.98865,3.59545 6.47182,3.95501 z"
         id="path938"
         inkscape:connector-curvature="0" />
      <path
         style="fill:#4d352b;fill-opacity:1;stroke:none;stroke-width:1px;stroke-linecap:butt;stroke-linejoin:miter;stroke-opacity:1"
         d="m 208.53658,272.72183 3.49732,0.58325 5.84746,-1.52542 -1.52543,-5.08475 -7.45981,-7.0965 -5.39318,7.01114 0.89886,3.23592 z"
         id="path940"
         inkscape:connector-curvature="0" />
      <path
         style="fill:#4e372a;fill-opacity:1;stroke:none;stroke-width:1px;stroke-linecap:butt;stroke-linejoin:miter;stroke-opacity:1"
         d="m 217.16568,284.58685 2.2411,-3.40041 2.79661,-1.77966 -4.32203,-7.62712 -5.84746,1.52542 -3.49732,-0.58325 -3.05614,3.77523 0.89886,5.93251 5.03364,1.9775 z"
         id="path942"
         inkscape:connector-curvature="0" />
      <path
         style="fill:#4d3228;fill-opacity:1;stroke:none;stroke-width:1px;stroke-linecap:butt;stroke-linejoin:miter;stroke-opacity:1"
         d="m 230.64864,289.08117 -3.61474,-5.09812 -4.83051,-4.57627 -2.79661,1.77966 -2.2411,3.40041 1.07863,3.05614 5.21342,2.33704 z"
         id="path944"
         inkscape:connector-curvature="0" />
      <path
         style="fill:#0d0708;fill-opacity:1;stroke:none;stroke-width:1px;stroke-linecap:butt;stroke-linejoin:miter;stroke-opacity:1"
         d="m 253.47458,275.33898 5.33898,-2.0339 6.35593,2.28814 5.33899,0.25424 1.27118,1.52542 -1.4012,3.79828 -8.26956,1.43818 -1.43818,-2.15727 z"
         id="path946"
         inkscape:connector-curvature="0" />
      <path
         style="fill:#542f29;fill-opacity:1;stroke:none;stroke-width:1px;stroke-linecap:butt;stroke-linejoin:miter;stroke-opacity:1"
         d="m 241.46187,265.80508 2.79661,0.12712 9.40677,-4.63983 -19.60092,-3.85123 z"
         id="path948"
         inkscape:connector-curvature="0" />
      <path
         style="fill:#321d12;fill-opacity:1;stroke:none;stroke-width:1px;stroke-linecap:butt;stroke-linejoin:miter;stroke-opacity:1"
         d="m 244.32203,247.62712 15.25424,-5.59322 c 0,0 11.69492,7.37288 10.67797,6.8644 -1.01695,-0.50847 -25.93221,-1.27118 -25.93221,-1.27118 z"
         id="path950"
         inkscape:connector-curvature="0" />
      <path
         style="fill:#544236;fill-opacity:1;stroke:none;stroke-width:1px;stroke-linecap:butt;stroke-linejoin:miter;stroke-opacity:1"
         d="m 222.20339,279.40678 8.13559,-0.76271 22.11865,15 7.88135,7.62712 13.72882,34.32203 -12.71187,-10.67797 -25.9322,-32.54237 -4.77509,-3.29171 -3.61474,-5.09812 z"
         id="path954"
         inkscape:connector-curvature="0" />
      <path
         style="fill:#4c3b2b;fill-opacity:1;stroke:none;stroke-width:1px;stroke-linecap:butt;stroke-linejoin:miter;stroke-opacity:1"
         d="m 270.37846,281.17116 26.82493,31.5407 17.79661,2.0339 -17.28814,-44.49152 -18.7043,-3.82446 z"
         id="path956"
         inkscape:connector-curvature="0" />
      <path
         style="fill:#4c3629;fill-opacity:1;stroke:none;stroke-width:1px;stroke-linecap:butt;stroke-linejoin:miter;stroke-opacity:1"
         d="m 296.69492,257.79661 11.94915,-4.32203 5.08474,-4.83051 7.11865,13.98305 z"
         id="path958"
         inkscape:connector-curvature="0" />
      <path
         style="fill:#3a2112;fill-opacity:1;stroke:none;stroke-width:1px;stroke-linecap:butt;stroke-linejoin:miter;stroke-opacity:1"
         d="m 280.44574,251.32886 4.13478,-1.43819 1.9775,-2.15727 -5.03364,8.26955 z"
         id="path960"
         inkscape:connector-curvature="0" />
      <path
         style="fill:#584537;fill-opacity:1;stroke:none;stroke-width:1px;stroke-linecap:butt;stroke-linejoin:miter;stroke-opacity:1"
         d="m 292.6703,335.10303 36.67367,-2.51682 17.61775,11.50547 -42.06686,2.87637 z"
         id="path962"
         inkscape:connector-curvature="0" />
      <path
         style="fill:#502c1e;fill-opacity:1;stroke:none;stroke-width:1px;stroke-linecap:butt;stroke-linejoin:miter;stroke-opacity:1"
         d="m 209.49153,238.98305 12.70779,-1.67648 15.46047,-6.11228 3.955,7.19092 -1.79773,4.31455 -10.78637,4.67409 c 0,0 -7.91001,0.35955 -7.91001,0.35955 0,0 -8.26955,-1.79773 -8.26955,-1.79773 l -3.05614,-3.41569 z"
         id="path964"
         inkscape:connector-curvature="0" />
      <path
         style="fill:#3d5f70;fill-opacity:1;stroke:none;stroke-width:1px;stroke-linecap:butt;stroke-linejoin:miter;stroke-opacity:1"
         d="m 354.66102,268.47458 -2.79661,4.8305 0.50847,6.35594 21.35593,3.55932 0.50848,-4.06779 v -7.11865 z"
         id="path966"
         inkscape:connector-curvature="0"
         sodipodi:nodetypes="ccccccc" />
      <path
         style="fill:#193c50;fill-opacity:1;stroke:none;stroke-width:1px;stroke-linecap:butt;stroke-linejoin:miter;stroke-opacity:1"
         d="m 188.13559,240.76271 -1.27118,2.41526 0.38135,3.94067 -2.43921,-1.54252 -1.43818,-3.77523 0.89886,-1.61795 z"
         id="path968"
         inkscape:connector-curvature="0" />
      <path
         style="fill:#372420;fill-opacity:1;stroke:none;stroke-width:1px;stroke-linecap:butt;stroke-linejoin:miter;stroke-opacity:1"
         d="m 262.64822,268.76683 13.3032,-0.89886 -0.53932,1.25841 -14.92115,3.41568 z"
         id="path1016"
         inkscape:connector-curvature="0" />
      <path
         style="fill:#065652;fill-opacity:1;stroke:none;stroke-width:1px;stroke-linecap:butt;stroke-linejoin:miter;stroke-opacity:1"
         d="m 98.135593,108.05085 1.779661,1.01695 -0.254237,5.84745 -2.033898,1.01695 -3.050848,-0.76271 0.508475,-4.0678 z"
         id="path1018"
         inkscape:connector-curvature="0" />
      <path
         style="fill:#411e06;fill-opacity:1;stroke:none;stroke-width:1px;stroke-linecap:butt;stroke-linejoin:miter;stroke-opacity:1"
         d="m 56.949153,128.38983 3.68644,-7.24576 0.381356,2.92373 3.432204,0.50847 0.127118,2.66949 -4.830508,3.94068 -2.542373,-0.25424 z"
         id="path1020"
         inkscape:connector-curvature="0" />
      <path
         style="fill:#0b0e20;fill-opacity:1;stroke:none;stroke-width:1px;stroke-linecap:butt;stroke-linejoin:miter;stroke-opacity:1"
         d="m 70.423729,98.38983 c 0,0 2.79661,-0.508475 3.305085,-0.381356 0.508474,0.127118 3.305084,2.288136 3.305084,2.288136 L 73.983051,105 h -2.542373 l -1.016949,-2.54237 z"
         id="path1022"
         inkscape:connector-curvature="0" />
      <path
         style="fill:#5d2501;fill-opacity:1;stroke:none;stroke-width:1px;stroke-linecap:butt;stroke-linejoin:miter;stroke-opacity:1"
         d="m 173.13559,1.2711857 4.0678,2.033898 4.57627,5.9745763 8.13559,-8.0084743 z"
         id="path1024"
         inkscape:connector-curvature="0" />
      <path
         style="fill:#437376;fill-opacity:1;stroke:none;stroke-width:1px;stroke-linecap:butt;stroke-linejoin:miter;stroke-opacity:1"
         d="m 227.92373,27.203389 2.79661,2.161017 2.79661,6.228813 11.5678,-6.864406 1.01695,-4.576271 -1.01695,-2.033899 -3.30509,-2.033898 -6.86441,3.050847 z"
         id="path1026"
         inkscape:connector-curvature="0" />
      <path
         style="fill:#0b0b0b;fill-opacity:1;stroke:none;stroke-width:1px;stroke-linecap:butt;stroke-linejoin:miter;stroke-opacity:1"
         d="m 39.729813,138.97079 4.31455,-0.35955 3.595458,-4.13477 -0.179773,-12.58411 -4.134776,-0.35954 -5.033642,1.07863 0.719092,15.82002 z"
         id="path1028"
         inkscape:connector-curvature="0" />
      <path
         style="fill:#44484b;fill-opacity:1;stroke:none;stroke-width:1px;stroke-linecap:butt;stroke-linejoin:miter;stroke-opacity:1"
         d="m 38.29163,122.61145 -6.112279,-0.53932 -2.696594,1.43819 0.898865,15.82001 c 0,0 2.876366,0.35955 3.595458,0.35955 0.719092,0 5.033642,-1.25841 5.033642,-1.25841 z"
         id="path1030"
         inkscape:connector-curvature="0" />
      <path
         style="fill:#1d1610;fill-opacity:1;stroke:none;stroke-width:1px;stroke-linecap:butt;stroke-linejoin:miter;stroke-opacity:1"
         d="m 29.482757,123.51032 h -3.955004 l -4.494322,0.71909 0.359545,15.2807 4.674096,1.25841 4.31455,-1.43819 z"
         id="path1032"
         inkscape:connector-curvature="0" />
      <path
         style="fill:#502615;fill-opacity:1;stroke:none;stroke-width:1px;stroke-linecap:butt;stroke-linejoin:miter;stroke-opacity:1"
         d="m 21.033431,124.22941 c 0,0 -7.999895,0.0899 -8.359441,0.17977 -0.359546,0.0899 -1.348297,0.35955 -1.348297,0.35955 l 0.629206,15.19081 1.438183,0.89886 c 0,0 5.033641,0.17978 5.483074,0.17978 0.449432,0 2.51682,-1.52807 2.51682,-1.52807 z"
         id="path1034"
         inkscape:connector-curvature="0" />
      <path
         style="fill:#6d4927;fill-opacity:1;stroke:none;stroke-width:1px;stroke-linecap:butt;stroke-linejoin:miter;stroke-opacity:1"
         d="m 2.5168208,124.85861 1.8876155,-0.44943 6.9212567,0.35955 0.629206,15.19081 -1.258411,1.43818 -5.9325059,0.0899 -1.977502,-1.25841 z"
         id="path1036"
         inkscape:connector-curvature="0" />
      <path
         style="fill:#1c6f64;fill-opacity:1;stroke:none;stroke-width:1px;stroke-linecap:butt;stroke-linejoin:miter;stroke-opacity:1"
         d="m 2.5168208,124.85861 -1.97750207,-0.6292 -1.25841037,0.26966 0.0898865,17.2582 1.43818329,0.35954 1.97750205,-1.8876 z"
         id="path1038"
         inkscape:connector-curvature="0" />
      <path
         style="fill:#654c39;fill-opacity:1;stroke:none;stroke-width:1px;stroke-linecap:butt;stroke-linejoin:miter;stroke-opacity:1"
         d="M 38.29163,122.61145 33.617534,0.18610107 41.949153,-0.25423856 47.460048,121.89236 43.325272,121.53282 Z"
         id="path1040"
         inkscape:connector-curvature="0" />
      <path
         style="fill:#795d51;fill-opacity:1;stroke:none;stroke-width:1px;stroke-linecap:butt;stroke-linejoin:miter;stroke-opacity:1"
         d="M 29.482757,123.51032 24.915254,-7.5980216e-7 33.617534,0.18610107 38.29163,122.61145 32.179351,122.07213 Z"
         id="path1042"
         inkscape:connector-curvature="0" />
      <path
         style="fill:#6f5443;fill-opacity:1;stroke:none;stroke-width:1px;stroke-linecap:butt;stroke-linejoin:miter;stroke-opacity:1"
         d="M 21.033431,124.22941 15.762712,0.25423653 24.915254,-7.5980216e-7 29.482757,123.51032 Z"
         id="path1044"
         inkscape:connector-curvature="0" />
      <path
         style="fill:#725a46;fill-opacity:1;stroke:none;stroke-width:1px;stroke-linecap:butt;stroke-linejoin:miter;stroke-opacity:1"
         d="M 11.325693,124.76873 6.6101695,0.25423653 H 15.762712 L 21.033431,124.22941 Z"
         id="path1046"
         inkscape:connector-curvature="0" />
      <path
         style="fill:#6e5541;fill-opacity:1;stroke:none;stroke-width:1px;stroke-linecap:butt;stroke-linejoin:miter;stroke-opacity:1"
         d="M 2.5168208,124.85861 -0.25423729,56.440677 0.17661695,1.2615765 6.6101695,0.25423653 11.325693,124.76873 4.4044363,124.40918 Z"
         id="path1048"
         inkscape:connector-curvature="0" />
      <path
         style="fill:#6b523e;fill-opacity:1;stroke:none;stroke-width:1px;stroke-linecap:butt;stroke-linejoin:miter;stroke-opacity:1"
         d="M -0.71909164,124.49907 2.5168208,124.85861 0,64.576271 Z"
         id="path1050"
         inkscape:connector-curvature="0" />
      <path
         style="fill:#3e403e;fill-opacity:1;stroke:none;stroke-width:1px;stroke-linecap:butt;stroke-linejoin:miter;stroke-opacity:1"
         d="M -0.62920514,141.75727 43.347458,139.83051 c 2.574469,-0.78396 4.416387,-2.2089 4.292363,-5.35404 L 41.949153,-0.25423856 43.86459,-0.35321716 50.875733,133.21806 c 0,0 0.926233,7.82733 -8.449326,8.80887 -9.375559,0.98154 -43.27261728,3.34496 -43.27261728,3.34496 z"
         id="path1052"
         inkscape:connector-curvature="0"
         sodipodi:nodetypes="ccccccscc" />
      <rect
         style="opacity:1;fill:#3e403e;fill-opacity:1;stroke:none;stroke-width:1.75748026;stroke-linecap:butt;stroke-linejoin:bevel;stroke-miterlimit:4;stroke-dasharray:none;stroke-dashoffset:0;stroke-opacity:1;paint-order:stroke markers fill"
         id="rect1060"
         width="5.0336413"
         height="2.157275"
         x="27.237724"
         y="128.78488"
         transform="rotate(-45.611844)" />
      <rect
         transform="matrix(0.68804513,-0.7256679,0.77059146,0.63732943,0,0)"
         y="130.36169"
         x="26.997421"
         height="1.6424565"
         width="11.423625"
         id="rect1062"
         style="opacity:1;fill:#3e403e;fill-opacity:1;stroke:none;stroke-width:2.31017828;stroke-linecap:butt;stroke-linejoin:bevel;stroke-miterlimit:4;stroke-dasharray:none;stroke-dashoffset:0;stroke-opacity:1;paint-order:stroke markers fill" />
      <rect
         style="opacity:1;fill:#3e403e;fill-opacity:1;stroke:none;stroke-width:2.31017828;stroke-linecap:butt;stroke-linejoin:bevel;stroke-miterlimit:4;stroke-dasharray:none;stroke-dashoffset:0;stroke-opacity:1;paint-order:stroke markers fill"
         id="rect1064"
         width="11.423625"
         height="1.6424565"
         x="55.645405"
         y="129.97806"
         transform="matrix(0.68804513,-0.7256679,0.77059146,0.63732943,0,0)" />
      <path
         style="fill:#3e2b1e;fill-opacity:1;stroke:none;stroke-width:1px;stroke-linecap:butt;stroke-linejoin:miter;stroke-opacity:1"
         d="m 99.953738,111.10599 73.706892,-44.583685 57.88688,-35.23549 1.96944,4.306404 -124.95763,75.762711 -8.898303,3.55932 z"
         id="path1070"
         inkscape:connector-curvature="0" />
      <rect
         transform="matrix(0.68698284,-0.72667364,0.78884536,0.61459173,0,0)"
         y="130.23946"
         x="70.319336"
         height="1.5054542"
         width="14.124207"
         id="rect1068"
         style="opacity:1;fill:#3e403e;fill-opacity:1;stroke:none;stroke-width:2.45930481;stroke-linecap:butt;stroke-linejoin:bevel;stroke-miterlimit:4;stroke-dasharray:none;stroke-dashoffset:0;stroke-opacity:1;paint-order:stroke markers fill" />
      <path
         style="fill:#24140b;fill-opacity:1;stroke:none;stroke-width:1px;stroke-linecap:butt;stroke-linejoin:miter;stroke-opacity:1"
         d="m 154.6047,83.780505 c -0.53932,-0.179773 2.87637,-7.910008 2.87637,-7.910008 l 74.06644,-44.583682 1.96944,4.306404 z"
         id="path1072"
         inkscape:connector-curvature="0" />
      <rect
         style="opacity:1;fill:#000080;fill-opacity:1;stroke:none;stroke-width:1.75748026;stroke-linecap:butt;stroke-linejoin:bevel;stroke-miterlimit:4;stroke-dasharray:none;stroke-dashoffset:0;stroke-opacity:1;paint-order:stroke markers fill"
         id="rect1074"
         width="12.044785"
         height="3.5954583"
         x="19.287777"
         y="106.87203"
         transform="rotate(-62.614551)" />
      <rect
         style="opacity:1;fill:#000080;fill-opacity:1;stroke:none;stroke-width:1.75748026;stroke-linecap:butt;stroke-linejoin:bevel;stroke-miterlimit:4;stroke-dasharray:none;stroke-dashoffset:0;stroke-opacity:1;paint-order:stroke markers fill"
         id="rect1076"
         width="16.359335"
         height="3.0561395"
         x="26.627169"
         y="109.55412"
         transform="rotate(-67.059974)" />
      <rect
         style="opacity:1;fill:#816e66;fill-opacity:1;stroke:none;stroke-width:1.75748026;stroke-linecap:butt;stroke-linejoin:bevel;stroke-miterlimit:4;stroke-dasharray:none;stroke-dashoffset:0;stroke-opacity:1;paint-order:stroke markers fill"
         id="rect1078"
         width="2.7966101"
         height="8.3898306"
         x="30.898651"
         y="28.850735"
         transform="rotate(-1.5481577)" />
      <rect
         style="opacity:1;fill:#816e66;fill-opacity:1;stroke:none;stroke-width:1.75748026;stroke-linecap:butt;stroke-linejoin:bevel;stroke-miterlimit:4;stroke-dasharray:none;stroke-dashoffset:0;stroke-opacity:1;paint-order:stroke markers fill"
         id="rect1080"
         width="2.7966101"
         height="21.355932"
         x="30.296093"
         y="43.917961"
         transform="rotate(-2.1136618)" />
      <rect
         style="opacity:1;fill:#816e66;fill-opacity:1;stroke:none;stroke-width:1.75748026;stroke-linecap:butt;stroke-linejoin:bevel;stroke-miterlimit:4;stroke-dasharray:none;stroke-dashoffset:0;stroke-opacity:1;paint-order:stroke markers fill"
         id="rect1082"
         width="2.5423729"
         height="20.847458"
         x="30.363237"
         y="83.449577"
         transform="rotate(-2.2769288)" />
      <rect
         style="opacity:1;fill:#502615;fill-opacity:1;stroke:none;stroke-width:1.75748026;stroke-linecap:butt;stroke-linejoin:bevel;stroke-miterlimit:4;stroke-dasharray:none;stroke-dashoffset:0;stroke-opacity:1;paint-order:stroke markers fill"
         id="rect1086"
         width="3.5954583"
         height="35.595036"
         x="10.041312"
         y="67.434029"
         transform="rotate(-3.0226544)" />
    </g>
  </g>
</svg>
